<svg width="14" height="14" viewBox="0 0 14 14" fill="none" xmlns="http://www.w3.org/2000/svg">
<path d="M12.25 5.25C10.85 6.80575 9.1 7.58333 7 7.58333C4.9 7.58333 3.15 6.80575 1.75 5.25M1.75 8.74997L3.20833 6.5333M12.2499 8.73597L10.7962 6.5333M5.25 9.91667L5.54167 7.58333M8.75 9.91667L8.45833 7.58333" stroke="#232323" stroke-width="1.5" stroke-linecap="round" stroke-linejoin="round"/>
<path d="M12.25 5.25C10.85 6.80575 9.1 7.58333 7 7.58333C4.9 7.58333 3.15 6.80575 1.75 5.25M1.75 8.74997L3.20833 6.5333M12.2499 8.73597L10.7962 6.5333M5.25 9.91667L5.54167 7.58333M8.75 9.91667L8.45833 7.58333" stroke="black" stroke-opacity="0.2" stroke-width="1.5" stroke-linecap="round" stroke-linejoin="round"/>
</svg>
