<svg width="14" height="14" viewBox="0 0 14 14" fill="none" xmlns="http://www.w3.org/2000/svg">
<path d="M8.16667 4.66667H6.70834C6.47627 4.66667 6.25371 4.75885 6.08962 4.92295C5.92553 5.08704 5.83334 5.3096 5.83334 5.54167C5.83334 5.77373 5.92553 5.99629 6.08962 6.16039C6.25371 6.32448 6.47627 6.41667 6.70834 6.41667H7.29167C7.52374 6.41667 7.7463 6.50885 7.91039 6.67295C8.07448 6.83704 8.16667 7.0596 8.16667 7.29167C8.16667 7.52373 8.07448 7.74629 7.91039 7.91039C7.7463 8.07448 7.52374 8.16667 7.29167 8.16667H5.83334M7 8.16667V9.04167M7 3.79167V4.66667M2.91667 12.25V2.91667C2.91667 2.60725 3.03959 2.3105 3.25838 2.09171C3.47717 1.87292 3.77392 1.75 4.08334 1.75H9.91667C10.2261 1.75 10.5228 1.87292 10.7416 2.09171C10.9604 2.3105 11.0833 2.60725 11.0833 2.91667V12.25L9.33334 11.0833L8.16667 12.25L7 11.0833L5.83334 12.25L4.66667 11.0833L2.91667 12.25Z" stroke="white" stroke-width="1.2" stroke-linecap="round" stroke-linejoin="round"/>
</svg>
