<svg width="15" height="13" viewBox="0 0 15 13" fill="none" xmlns="http://www.w3.org/2000/svg">
<path d="M13.5 0H1.5C0.675 0 0.00749999 0.73125 0.00749999 1.625L0 11.375C0 12.2688 0.675 13 1.5 13H13.5C14.325 13 15 12.2688 15 11.375V1.625C15 0.73125 14.325 0 13.5 0ZM13.2 3.45312L7.8975 7.04438C7.6575 7.20688 7.3425 7.20688 7.1025 7.04438L1.8 3.45312C1.7248 3.40739 1.65894 3.3456 1.60642 3.27149C1.55389 3.19739 1.5158 3.11251 1.49443 3.02199C1.47307 2.93147 1.46888 2.8372 1.48212 2.74487C1.49536 2.65255 1.52575 2.5641 1.57146 2.48487C1.61717 2.40564 1.67724 2.33728 1.74804 2.28393C1.81885 2.23058 1.8989 2.19335 1.98337 2.17449C2.06784 2.15563 2.15496 2.15554 2.23947 2.17421C2.32397 2.19288 2.4041 2.22993 2.475 2.28312L7.5 5.6875L12.525 2.28312C12.5959 2.22993 12.676 2.19288 12.7605 2.17421C12.845 2.15554 12.9322 2.15563 13.0166 2.17449C13.1011 2.19335 13.1812 2.23058 13.252 2.28393C13.3228 2.33728 13.3828 2.40564 13.4285 2.48487C13.4742 2.5641 13.5046 2.65255 13.5179 2.74487C13.5311 2.8372 13.5269 2.93147 13.5056 3.02199C13.4842 3.11251 13.4461 3.19739 13.3936 3.27149C13.3411 3.3456 13.2752 3.40739 13.2 3.45312Z" fill="black"/>
</svg>
