<svg width="29" height="8" viewBox="0 0 29 8" fill="none" xmlns="http://www.w3.org/2000/svg">
<path d="M27.9041 1.94132C26.491 0.608684 24.1998 0.608684 22.7867 1.94132C21.3735 3.27396 21.3735 5.43461 22.7867 6.76724C24.1998 8.09988 26.491 8.09988 27.9041 6.76724C29.3173 5.43466 29.3173 3.27401 27.9041 1.94132Z" fill="#C83636"/>
<path d="M17.0483 1.94132C15.6351 0.608684 13.344 0.608684 11.9308 1.94132C10.5177 3.27396 10.5177 5.43461 11.9308 6.76724C13.344 8.09988 15.6351 8.09988 17.0483 6.76724C18.4614 5.43466 18.4614 3.27401 17.0483 1.94132Z" fill="#C83636"/>
<path d="M6.19246 1.94132C4.77931 0.608684 2.48813 0.608684 1.07499 1.94132C-0.33816 3.27396 -0.33816 5.43461 1.07499 6.76724C2.48813 8.09988 4.77931 8.09988 6.19246 6.76724C7.60561 5.43466 7.60561 3.27401 6.19246 1.94132Z" fill="#C83636"/>
</svg>
