<svg width="13" height="16" viewBox="0 0 13 16" fill="none" xmlns="http://www.w3.org/2000/svg">
<path d="M11.375 5.33333H10.5625V3.80952C10.5625 1.70667 8.7425 0 6.5 0C4.2575 0 2.4375 1.70667 2.4375 3.80952V5.33333H1.625C0.73125 5.33333 0 6.01905 0 6.85714V14.4762C0 15.3143 0.73125 16 1.625 16H11.375C12.2688 16 13 15.3143 13 14.4762V6.85714C13 6.01905 12.2688 5.33333 11.375 5.33333ZM6.5 12.1905C5.60625 12.1905 4.875 11.5048 4.875 10.6667C4.875 9.82857 5.60625 9.14286 6.5 9.14286C7.39375 9.14286 8.125 9.82857 8.125 10.6667C8.125 11.5048 7.39375 12.1905 6.5 12.1905ZM9.01875 5.33333H3.98125V3.80952C3.98125 2.50667 5.11062 1.44762 6.5 1.44762C7.88938 1.44762 9.01875 2.50667 9.01875 3.80952V5.33333Z" fill="black"/>
</svg>
