<svg width="14" height="14" viewBox="0 0 14 14" fill="none" xmlns="http://www.w3.org/2000/svg">
<path d="M12.25 1.75L8.45837 12.25C8.43278 12.3058 8.39169 12.3532 8.33999 12.3864C8.28828 12.4195 8.22814 12.4372 8.16671 12.4372C8.10527 12.4372 8.04513 12.4195 7.99343 12.3864C7.94172 12.3532 7.90063 12.3058 7.87504 12.25L5.83337 8.16667L1.75004 6.125C1.69419 6.09941 1.64686 6.05832 1.61368 6.00661C1.5805 5.95491 1.56287 5.89477 1.56287 5.83333C1.56287 5.7719 1.5805 5.71176 1.61368 5.66005C1.64686 5.60835 1.69419 5.56726 1.75004 5.54167L12.25 1.75Z" stroke="white" stroke-width="1.5" stroke-linecap="round" stroke-linejoin="round"/>
</svg>
