<svg width="14" height="15" viewBox="0 0 14 15" fill="none" xmlns="http://www.w3.org/2000/svg">
<path d="M1 3.88889H13M5.5 6.77778V11.1111M8.5 6.77778V11.1111M1.75 3.88889L2.5 12.5556C2.5 12.9386 2.65804 13.306 2.93934 13.5769C3.22064 13.8478 3.60218 14 4 14H10C10.3978 14 10.7794 13.8478 11.0607 13.5769C11.342 13.306 11.5 12.9386 11.5 12.5556L12.25 3.88889M4.75 3.88889V1.72222C4.75 1.53068 4.82902 1.34698 4.96967 1.21153C5.11032 1.07609 5.30109 1 5.5 1H8.5C8.69891 1 8.88968 1.07609 9.03033 1.21153C9.17098 1.34698 9.25 1.53068 9.25 1.72222V3.88889" stroke="#C83636" stroke-width="1.5" stroke-linecap="round" stroke-linejoin="round"/>
</svg>
